# xmcd CD database file
#
# Track frame offsets:
#	150
#	17073
#	28669
#	42776
#	59756
#	84398
#	99007
#	137948
#	154817
#	180801
#	195920
#	227840
#
# Disc length: 3219 seconds
#
# Revision: 0
# Processed by: cddbd v1.5.2PL0 Copyright (c) Steve Scherf et al.
# Submitted via: CDex 1.51
#
DISCID=8b0c910c
DTITLE=Fat Tuesday and the Grease Fire Horns - I'd Rather Be Lucky...
DYEAR=1999
DGENRE=Blues
TTITLE0=Lumpty Lump
TTITLE1=Des Moines, A Freeway
TTITLE2=I'd Rather Be Lucky Than Good
TTITLE3=You Aint Suffered Enough
TTITLE4=Blues Bandit
TTITLE5=Blind In A Snowstorm
TTITLE6=Jimmy Shuffle
TTITLE7=Little Bit
TTITLE8=They Call Me Guitar Hurricane
TTITLE9=Gimme A Dollar
TTITLE10=Voodoo Chile
TTITLE11=Yeah, Whatever
EXTD=YEAR: 1999
EXTT0=
EXTT1=
EXTT2=
EXTT3=
EXTT4=
EXTT5=
EXTT6=
EXTT7=
EXTT8=
EXTT9=
EXTT10=
EXTT11=
PLAYORDER=
